<svg width="186" height="50" viewBox="0 0 186 50" fill="none" xmlns="http://www.w3.org/2000/svg">
<path d="M77.3746 26.3311H66.9794C66.9355 26.2871 66.8478 26.1551 66.7162 25.9352C66.5846 25.7152 66.475 25.5392 66.3873 25.4072C66.0364 25.0113 65.6416 24.6153 65.203 24.2193C64.7205 23.9114 64.0845 23.5814 63.295 23.2294C62.5494 22.9655 61.6502 22.8335 60.5975 22.8335C58.2728 22.8335 56.4745 23.6694 55.2025 25.3412C53.9305 27.013 53.2945 29.0588 53.2945 31.4785C53.2945 33.8543 53.9524 35.9001 55.2683 37.6159C56.5842 39.3317 58.3825 40.1896 60.6633 40.1896C61.8914 40.1896 63.1854 39.8596 64.5451 39.1997C65.9048 38.5398 66.7601 37.7039 67.111 36.692H77.3746C77.2431 39.1557 76.2781 41.4434 74.4798 43.5552C72.6814 45.623 70.5541 47.1408 68.0979 48.1087C65.9486 48.9886 63.3827 49.4286 60.4001 49.4286C55.1806 49.4286 50.9041 47.7348 47.5706 44.3471C44.2371 40.9155 42.5703 36.626 42.5703 31.4785C42.5703 26.1991 44.2371 21.8876 47.5706 18.544C50.9041 15.2003 55.1367 13.5285 60.2685 13.5285C64.5231 13.5285 68.3172 14.6724 71.6507 16.9601C75.028 19.2039 76.936 22.3275 77.3746 26.3311Z" fill="#111111"/>
<path d="M84.6396 48.5707V0H95.3638V48.5707H84.6396Z" fill="#111111"/>
<path d="M122.243 49.3626C116.892 49.3626 112.594 47.9327 109.348 45.073C106.146 42.2134 104.545 38.1878 104.545 32.9964V14.3864H115.269V32.2045C115.269 34.4482 115.839 36.23 116.98 37.5499C118.164 38.8697 119.853 39.5297 122.046 39.5297C124.239 39.5297 125.928 38.8697 127.112 37.5499C128.296 36.23 128.888 34.4482 128.888 32.2045V14.3864H139.612V32.9964C139.612 38.2758 138.012 42.3234 134.81 45.139C131.652 47.9547 127.463 49.3626 122.243 49.3626Z" fill="#111111"/>
<path d="M159.155 43.6872V48.5707H148.694V0H159.287V19.4019C159.462 19.0939 159.791 18.654 160.274 18.082C161.327 16.7182 162.796 15.6623 164.682 14.9144C166.612 14.1224 168.52 13.7265 170.406 13.7265C175.275 13.7265 179.091 15.4643 181.854 18.9399C184.617 22.3715 185.999 26.5511 185.999 31.4785C185.999 36.494 184.595 40.7175 181.788 44.1492C178.981 47.5808 175.187 49.2966 170.406 49.2966C168.476 49.2966 166.546 48.9226 164.616 48.1747C162.73 47.4268 161.239 46.3709 160.142 45.0071C159.66 44.4351 159.331 43.9952 159.155 43.6872ZM161.327 25.2752C159.879 26.903 159.155 28.9708 159.155 31.4785C159.155 33.9863 159.879 36.054 161.327 37.6819C162.818 39.3097 164.792 40.1236 167.248 40.1236C169.704 40.1236 171.656 39.3097 173.104 37.6819C174.551 36.054 175.275 33.9863 175.275 31.4785C175.275 28.9708 174.551 26.903 173.104 25.2752C171.656 23.6474 169.704 22.8335 167.248 22.8335C164.792 22.8335 162.818 23.6474 161.327 25.2752Z" fill="#111111"/>
<path d="M34.6297 34.0647H9.01738C9.24471 36.55 10.0783 38.5835 11.6696 40.0145C13.2608 41.4454 15.1553 42.1232 17.4285 42.1232C20.6869 42.1232 23.036 40.6923 24.4758 37.9057H34.0236C33.0385 41.2948 31.0683 44.0061 28.1888 46.1902C25.3093 48.3742 21.8235 49.4287 17.6559 49.4287C14.246 49.4287 11.2149 48.6756 8.56272 47.1693C5.91055 45.663 3.78881 43.5542 2.27329 40.8429C0.757763 38.1316 0 34.9685 0 31.4287C0 27.8136 0.757764 24.6504 2.19752 21.9392C3.63726 19.2279 5.759 17.1191 8.41117 15.6129C11.0634 14.1819 14.0943 13.4287 17.5802 13.4287C20.9142 13.4287 23.8696 14.1066 26.5217 15.5375C29.1739 16.9684 31.2198 19.002 32.6596 21.6379C34.0994 24.2739 34.8571 27.2865 34.8571 30.6756C34.8571 31.8806 34.7814 33.0103 34.6297 34.0647ZM25.6882 28.115C25.6124 25.8555 24.8546 24.048 23.1875 22.6923C21.5962 21.3367 19.6261 20.6589 17.277 20.6589C15.0795 20.6589 13.2608 21.3367 11.7454 22.617C10.2298 23.9727 9.32049 25.7802 9.01738 28.115H25.6882Z" fill="#AACA48"/>
</svg>
