<svg width="74" height="74" viewBox="0 0 74 74" fill="none" xmlns="http://www.w3.org/2000/svg">
<rect width="74" height="74" rx="8" fill="#AACA48"/>
<g clip-path="url(#clip0)">
<path d="M59.6759 34.0459C59.1155 31.3023 57.7512 28.7189 55.7026 26.6704L47.3357 18.2875C45.2565 16.2082 42.6476 14.8219 39.8656 14.2795C36.7787 13.4606 27.7961 14.1055 21.2394 20.8845C13.074 29.3147 12.6984 43.5316 21.4408 52.3726C30.3299 61.362 44.8138 61.0351 53.4149 52.4367C59.4717 46.378 60.6999 37.6325 59.6759 34.0459ZM45.4715 20.1516L53.8384 28.5345C54.0845 28.7806 54.2683 29.0694 54.4904 29.3329C52.0611 28.9081 49.5249 27.9861 47.7565 26.253C46.0214 24.5179 45.0814 21.9239 44.6741 19.494C44.9382 19.7167 45.2248 19.9049 45.4715 20.1516ZM46.728 41.9152C46.728 44.0961 44.9539 45.8703 42.773 45.8703C40.5921 45.8703 38.8179 44.0961 38.8179 41.9152C38.8179 39.7343 40.5921 37.9601 42.773 37.9601C44.9539 37.9601 46.728 39.7342 46.728 41.9152ZM43.8698 29.4628L33.323 45.2832C32.9253 45.8805 32.1108 46.0572 31.4948 45.6488C30.8884 45.2445 30.7248 44.427 31.1291 43.8206L41.676 28.0003C42.0778 27.3939 42.8953 27.2291 43.5042 27.6346C44.1106 28.0389 44.2741 28.8564 43.8698 29.4628ZM28.271 31.3683C28.271 29.1874 30.0452 27.4132 32.2261 27.4132C34.407 27.4132 36.1812 29.1874 36.1812 31.3683C36.1812 33.5492 34.407 35.3234 32.2261 35.3234C30.0452 35.3234 28.271 33.5492 28.271 31.3683ZM49.686 48.7003C42.9174 55.4692 31.7931 55.3049 25.2421 48.7003C18.545 42.0294 18.545 30.9783 25.2421 24.3073C29.5928 19.9568 36.2075 18.322 42.0874 19.9304C42.2456 20.827 42.483 21.9079 42.8522 22.9889C37.5259 20.8532 31.3295 22.1926 27.2427 26.2531C21.3932 32.1026 21.3942 40.9789 27.2427 46.8547C33.0575 52.6132 42.264 52.3468 47.7565 46.8547C51.8169 42.7677 53.1402 36.4835 51.0045 31.1574C52.0856 31.5265 53.1666 31.7639 54.0631 31.9221C55.6714 37.8019 54.0367 44.3498 49.686 48.7003Z" fill="white"/>
<path d="M32.2246 30.0498C31.4972 30.0498 30.9062 30.6408 30.9062 31.3682C30.9062 32.0955 31.4972 32.6865 32.2246 32.6865C32.952 32.6865 33.543 32.0955 33.543 31.3682C33.543 30.6408 32.952 30.0498 32.2246 30.0498Z" fill="white"/>
<path d="M42.7715 40.5967C42.0441 40.5967 41.4531 41.1876 41.4531 41.915C41.4531 42.6424 42.0441 43.2334 42.7715 43.2334C43.4989 43.2334 44.0898 42.6424 44.0898 41.915C44.0898 41.1877 43.4989 40.5967 42.7715 40.5967Z" fill="white"/>
</g>
<defs>
<clipPath id="clip0">
<rect width="45" height="45" fill="white" transform="translate(15 14)"/>
</clipPath>
</defs>
</svg>
