<svg width="107" height="111" viewBox="0 0 107 111" fill="none" xmlns="http://www.w3.org/2000/svg">
<path d="M71.125 53.6249V18.3749L53.5 0.749878L35.875 18.3749V30.1249H0.625V112.375H106.375V53.6249H71.125ZM24.125 100.625H12.375V88.8749H24.125V100.625ZM24.125 77.1249H12.375V65.3749H24.125V77.1249ZM24.125 53.6249H12.375V41.8749H24.125V53.6249ZM59.375 100.625H47.625V88.8749H59.375V100.625ZM59.375 77.1249H47.625V65.3749H59.375V77.1249ZM59.375 53.6249H47.625V41.8749H59.375V53.6249ZM59.375 30.1249H47.625V18.3749H59.375V30.1249ZM94.625 100.625H82.875V88.8749H94.625V100.625ZM94.625 77.1249H82.875V65.3749H94.625V77.1249Z" fill="#A3BF48"/>
</svg>
