<svg width="112" height="88" viewBox="0 0 112 88" fill="none" xmlns="http://www.w3.org/2000/svg">
<path fill-rule="evenodd" clip-rule="evenodd" d="M1 87.9595H111V1H1V87.9595Z" fill="#1B1918"/>
<path d="M1 87.9595H111V1H1V87.9595Z" stroke="#1B1918" stroke-width="0.0443"/>
<path fill-rule="evenodd" clip-rule="evenodd" d="M2.375 86.6216H108.25V2.33783H2.375V86.6216Z" fill="white"/>
<path d="M2.375 86.6216H108.25V2.33783H2.375V86.6216Z" stroke="#1B1918" stroke-width="0.0443"/>
<path fill-rule="evenodd" clip-rule="evenodd" d="M19.8428 29.7366C18.6958 29.7366 17.7432 30.1315 16.985 30.9203C16.2263 31.7095 15.8471 32.7211 15.8471 33.955C15.8471 35.1979 16.2329 36.2206 17.0048 37.0227C17.7769 37.8249 18.7271 38.2259 19.856 38.2259C21.0209 38.2259 21.9873 37.8316 22.7545 37.0425C23.5222 36.2532 23.9061 35.2201 23.9061 33.942C23.9061 32.6899 23.5222 31.6763 22.7545 30.9005C21.9873 30.1249 21.0167 29.7366 19.8428 29.7366ZM23.743 26.7746H27.4532V41.1614H23.743V39.6406C23.0188 40.3109 22.2925 40.7936 21.564 41.0886C20.8356 41.3841 20.0462 41.5318 19.1956 41.5318C17.2863 41.5318 15.6344 40.811 14.2408 39.3697C12.8471 37.9285 12.1504 36.1368 12.1504 33.9948C12.1504 31.7731 12.8246 29.9531 14.173 28.5335C15.5215 27.1143 17.1594 26.405 19.087 26.405C19.9737 26.405 20.806 26.5677 21.5841 26.8938C22.3627 27.2201 23.0821 27.7095 23.743 28.3616V26.7746Z" fill="#1B1918"/>
<path fill-rule="evenodd" clip-rule="evenodd" d="M31.231 21.2213H34.9412V32.706L40.4045 26.7746H45.0636L38.6942 33.6697L45.8257 41.1614H41.22L34.9412 34.5309V41.1614H31.231V21.2213Z" fill="#1B1918"/>
<path fill-rule="evenodd" clip-rule="evenodd" d="M47.3494 26.7746H51.0593V28.2491C51.9008 27.559 52.6628 27.0791 53.346 26.8094C54.0288 26.5397 54.7279 26.405 55.443 26.405C56.9087 26.405 58.1525 26.9027 59.1746 27.8988C60.034 28.7451 60.4638 29.9968 60.4638 31.6541V41.1614H56.7944V34.8615C56.7944 33.1444 56.7155 32.0043 56.5571 31.4409C56.3991 30.8773 56.123 30.4479 55.7297 30.153C55.3367 29.8578 54.8512 29.7105 54.2723 29.7105C53.5226 29.7105 52.8782 29.955 52.3407 30.4435C51.8024 30.9321 51.43 31.608 51.2221 32.471C51.1137 32.9197 51.0593 33.8929 51.0593 35.3899V41.1614H47.3494V26.7746Z" fill="#1B1918"/>
<path fill-rule="evenodd" clip-rule="evenodd" d="M63.644 26.7747H67.3541V41.1614H63.644V26.7747ZM65.4993 20.8513C66.1496 20.8513 66.7073 21.0803 67.1726 21.5389C67.6377 21.997 67.8704 22.5523 67.8704 23.2049C67.8704 23.8483 67.6402 24.3969 67.1794 24.8511C66.7183 25.3049 66.1674 25.5317 65.526 25.5317C64.8664 25.5317 64.3042 25.3006 63.8389 24.8377C63.3733 24.3753 63.1411 23.8127 63.1411 23.1519C63.1411 22.5173 63.3712 21.9749 63.832 21.5254C64.2928 21.0759 64.8485 20.8513 65.4993 20.8513Z" fill="#1B1918"/>
<path fill-rule="evenodd" clip-rule="evenodd" d="M88.9883 21.4725H92.6982V26.7747H94.8997V29.8823H92.6982V41.1614H88.9883V29.8823H87.0856V26.7747H88.9883V21.4725Z" fill="#1B1918"/>
<path fill-rule="evenodd" clip-rule="evenodd" d="M81.8258 32.17C81.5805 31.3678 81.0971 30.7152 80.3757 30.2129C79.6539 29.7105 78.8169 29.4593 77.864 29.4593C76.8294 29.4593 75.9216 29.7413 75.1414 30.3053C74.6514 30.6581 74.1975 31.2798 73.7803 32.17H81.8258ZM85.5357 35.0128H73.6171C73.7888 36.0353 74.2487 36.8486 74.9965 37.4521C75.7438 38.0565 76.6973 38.3582 77.8572 38.3582C79.2436 38.3582 80.4346 37.8866 81.4312 36.9433L84.557 38.3712C83.7779 39.4468 82.8446 40.2427 81.7575 40.7581C80.6704 41.2739 79.3792 41.5318 77.8844 41.5318C75.5648 41.5318 73.6759 40.8197 72.2173 39.3962C70.7583 37.9727 70.0293 36.1897 70.0293 34.0478C70.0293 31.8525 70.7562 30.0301 72.2104 28.5797C73.6645 27.1297 75.4878 26.405 77.6802 26.405C80.0092 26.405 81.9024 27.1297 83.361 28.5797C84.8196 30.0301 85.5492 31.9449 85.5492 34.325L85.5357 35.0128Z" fill="#B1C900"/>
<path fill-rule="evenodd" clip-rule="evenodd" d="M19.9108 49.9401C18.7418 49.9401 17.7766 50.3217 17.0157 51.084C16.2545 51.8463 15.8743 52.8053 15.8743 53.9598C15.8743 55.159 16.2636 56.1417 17.0429 56.9083C17.8219 57.6754 18.8005 58.0588 19.9784 58.0588C21.1289 58.0588 22.0781 57.6845 22.8256 56.9348C23.5731 56.186 23.9467 55.2028 23.9467 53.9863C23.9467 52.7876 23.5708 51.8135 22.8189 51.0642C22.0666 50.315 21.0973 49.9401 19.9108 49.9401ZM23.7565 46.9387H27.4532V59.2621C27.4532 61.6955 26.9501 63.4848 25.9446 64.6309C24.5944 66.182 22.5605 66.9577 19.8426 66.9577C18.3928 66.9577 17.1741 66.7811 16.1869 66.429C15.1991 66.0762 14.3657 65.5583 13.6862 64.8755C13.0068 64.1921 12.5038 63.3611 12.1779 62.3827H16.2683C16.6307 62.7881 17.0973 63.0944 17.668 63.3018C18.2388 63.5089 18.9138 63.6127 19.693 63.6127C20.6896 63.6127 21.4913 63.4626 22.0985 63.1628C22.7056 62.8634 23.1334 62.4751 23.3828 61.9995C23.6319 61.5233 23.7565 60.7036 23.7565 59.5401C23.1044 60.1743 22.4199 60.6307 21.7045 60.9083C20.9888 61.186 20.1775 61.325 19.2718 61.325C17.2876 61.325 15.6113 60.6287 14.2434 59.2356C12.8752 57.8429 12.1913 56.08 12.1913 53.9468C12.1913 51.6638 12.9159 49.8299 14.3657 48.4459C15.6792 47.1942 17.2469 46.5681 19.068 46.5681C19.9196 46.5681 20.7237 46.7204 21.4802 47.0245C22.2365 47.3285 22.9953 47.829 23.7565 48.5252V46.9387Z" fill="#1B1918"/>
<path fill-rule="evenodd" clip-rule="evenodd" d="M30.3342 46.9387H33.5142V48.7501C33.8585 48.036 34.3161 47.4936 34.8868 47.1235C35.4576 46.7534 36.083 46.5681 36.7625 46.5681C37.2425 46.5681 37.7452 46.6919 38.2709 46.9387L37.1156 50.046C36.6808 49.8343 36.3228 49.7284 36.0421 49.7284C35.4712 49.7284 34.9889 50.0724 34.5948 50.7597C34.2007 51.4473 34.0035 52.7961 34.0035 54.8058L34.0173 55.5069V61.325H30.3345L30.3342 46.9387Z" fill="#1B1918"/>
<path fill-rule="evenodd" clip-rule="evenodd" d="M47.1114 49.9665C45.9588 49.9665 44.9992 50.3565 44.232 51.137C43.4651 51.9171 43.0819 52.9155 43.0819 54.1317C43.0819 55.3838 43.4607 56.3972 44.2185 57.173C44.9761 57.9487 45.9362 58.3367 47.0975 58.3367C48.2595 58.3367 49.226 57.9443 49.9972 57.1599C50.7686 56.3755 51.1547 55.3659 51.1547 54.1317C51.1547 52.8977 50.7755 51.8952 50.0176 51.1234C49.2601 50.3521 48.2911 49.9665 47.1114 49.9665ZM47.0502 46.5681C48.4454 46.5681 49.757 46.9079 50.9846 47.5865C52.2122 48.2654 53.1702 49.1865 53.859 50.3502C54.5475 51.5137 54.8918 52.7698 54.8918 54.1186C54.8918 55.4761 54.5456 56.7456 53.8522 57.927C53.1592 59.1083 52.2145 60.0314 51.0186 60.697C49.8227 61.3625 48.5047 61.6954 47.0639 61.6954C44.9437 61.6954 43.1339 60.9616 41.6343 59.4934C40.135 58.0258 39.3854 56.2428 39.3854 54.1451C39.3854 51.8969 40.2324 50.0239 41.9266 48.5252C43.4123 47.2207 45.1202 46.5681 47.0502 46.5681Z" fill="#1B1918"/>
<path fill-rule="evenodd" clip-rule="evenodd" d="M57.9088 46.9387H61.6598V53.8675C61.6598 55.2163 61.7552 56.1526 61.9459 56.6772C62.1363 57.2018 62.4432 57.6094 62.8653 57.9005C63.2876 58.1909 63.8076 58.3367 64.4256 58.3367C65.0429 58.3367 65.5674 58.1935 65.9988 57.9068C66.4304 57.6205 66.7503 57.1994 66.9594 56.644C67.1137 56.2297 67.1908 55.3439 67.1908 53.9863V46.9387H70.9013V53.0344C70.9013 55.5465 70.6969 57.2653 70.2894 58.1908C69.7908 59.3197 69.0574 60.186 68.0879 60.7893C67.1181 61.3934 65.8865 61.6955 64.3913 61.6955C62.7691 61.6955 61.4581 61.3424 60.4569 60.6374C59.4555 59.9323 58.7515 58.9491 58.3439 57.6888C58.0537 56.816 57.9088 55.2293 57.9088 52.9285V46.9387Z" fill="#1B1918"/>
<path fill-rule="evenodd" clip-rule="evenodd" d="M82.2082 49.9003C81.0393 49.9003 80.0699 50.2885 79.2999 51.0642C78.5298 51.84 78.1447 52.8538 78.1447 54.1051C78.1447 55.3838 78.5298 56.4174 79.2999 57.2062C80.0699 57.995 81.0393 58.3895 82.2082 58.3895C83.3406 58.3895 84.2943 57.9887 85.0689 57.1864C85.8434 56.3842 86.231 55.3612 86.231 54.1186C86.231 52.8843 85.8503 51.8728 85.0892 51.084C84.328 50.2952 83.368 49.9003 82.2082 49.9003ZM78.3077 46.9387V48.5252C78.9779 47.8729 79.7029 47.3838 80.482 47.0575C81.2614 46.7313 82.0949 46.5681 82.9827 46.5681C84.9125 46.5681 86.5522 47.278 87.9029 48.6971C89.2522 50.1167 89.9273 51.9367 89.9273 54.1585C89.9273 56.3001 89.2299 58.0917 87.8346 59.5334C86.4393 60.9746 84.7855 61.6955 82.8742 61.6955C82.0222 61.6955 81.2297 61.5473 80.4959 61.252C79.7619 60.9568 79.0323 60.4745 78.3077 59.8043V66.5877H74.6249V46.9387H78.3077Z" fill="#1B1918"/>
</svg>
