<svg width="74" height="74" viewBox="0 0 74 74" fill="none" xmlns="http://www.w3.org/2000/svg">
<rect width="74" height="74" rx="8" fill="#AACA48"/>
<g clip-path="url(#clip0)">
<path d="M24.8618 39.9624C25.7062 39.9624 26.3906 39.2779 26.3906 38.4336C26.3906 37.5893 25.7062 36.9048 24.8618 36.9048C24.0175 36.9048 23.333 37.5893 23.333 38.4336C23.333 39.2779 24.0175 39.9624 24.8618 39.9624Z" fill="white"/>
<path d="M36.3311 51.4319C37.1754 51.4319 37.8599 50.7474 37.8599 49.9031C37.8599 49.0587 37.1754 48.3743 36.3311 48.3743C35.4867 48.3743 34.8022 49.0587 34.8022 49.9031C34.8022 50.7474 35.4867 51.4319 36.3311 51.4319Z" fill="white"/>
<path d="M29.9282 16.8335C31.9551 16.8335 33.665 18.2126 34.1713 20.0815H36.9067C36.3564 16.7257 33.4374 14.1565 29.9282 14.1565C26.4191 14.1565 23.5 16.7257 22.9497 20.0815H25.6851C26.1913 18.2126 27.9013 16.8335 29.9282 16.8335Z" fill="white"/>
<path d="M43.9338 37.2866L42.8254 23.9858C42.7677 23.2922 42.1877 22.7585 41.4916 22.7585H37.0002H22.854H18.3626C17.6664 22.7585 17.0865 23.2922 17.0288 23.9858L14.1614 58.3939C14.1302 58.7668 14.2568 59.1358 14.5103 59.4113C14.7637 59.6868 15.121 59.8435 15.4952 59.8435H37.3257C37.1017 59.2105 37.0368 58.5246 37.15 57.8451L37.818 53.8364C37.3554 54.0119 36.8543 54.1088 36.3309 54.1088C34.0118 54.1088 32.1251 52.2221 32.1251 49.903C32.1251 47.584 34.0118 45.6972 36.3309 45.6972C37.3495 45.6972 38.2845 46.0614 39.013 46.6661L40.0173 40.6409C40.3389 38.7114 41.9822 37.3077 43.9338 37.2866ZM20.6559 38.4337C20.6559 36.1147 22.5426 34.2279 24.8617 34.2279C27.1807 34.2279 29.0675 36.1147 29.0675 38.4337C29.0675 40.7528 27.1807 42.6395 24.8617 42.6395C22.5426 42.6395 20.6559 40.7528 20.6559 38.4337ZM37.3762 37.8362L25.9069 52.1729C25.468 52.7215 24.6301 52.8656 24.0256 52.3819C23.4483 51.9201 23.3547 51.0779 23.8166 50.5006L35.2859 36.1639C35.7477 35.5868 36.5898 35.4931 37.1672 35.9549C37.7444 36.4166 37.8379 37.2589 37.3762 37.8362Z" fill="white"/>
<path d="M49.8082 36.9047C50.1911 36.9047 50.5443 37.0483 50.8151 37.2855H53.8549C53.3529 35.5069 51.7148 34.2278 49.8081 34.2278C47.8679 34.2278 46.2602 35.5312 45.7627 37.2855H48.8005C49.0683 37.0498 49.4192 36.9047 49.8082 36.9047Z" fill="white"/>
<path d="M59.8271 58.2846L56.9597 41.0806C56.8522 40.4352 56.2938 39.9622 55.6394 39.9622H54.0154H45.6038H43.9798C43.3255 39.9622 42.7671 40.4352 42.6595 41.0806L39.7921 58.2846C39.7275 58.6727 39.8369 59.0696 40.0912 59.3698C40.3455 59.67 40.719 59.8431 41.1124 59.8431H58.5068C58.9003 59.8431 59.2739 59.67 59.5281 59.3698C59.7824 59.0696 59.8918 58.6727 59.8271 58.2846Z" fill="white"/>
</g>
<defs>
<clipPath id="clip0">
<rect width="45.687" height="45.687" fill="white" transform="translate(14.1567 14.1565)"/>
</clipPath>
</defs>
</svg>
