<svg width="200" height="150" viewBox="0 0 200 150" fill="none" xmlns="http://www.w3.org/2000/svg">
<g clip-path="url(#clip0)">
<rect width="200" height="150" fill="white"/>
<path d="M83 122C82.6158 110.061 78.7733 100.908 70.7036 93.7446C62.6343 86.5811 53.0278 82.9999 41.4997 82.9999C30.7406 82.9999 21.5188 86.5811 13.8332 93.3465C6.53243 100.112 1.92153 109.663 0 122H83Z" fill="#A3BF49"/>
<path d="M208 122C207.616 110.061 203.773 100.908 195.704 93.7446C187.634 86.5811 178.028 82.9999 166.5 82.9999C155.741 82.9999 146.519 86.5816 138.833 93.3465C131.532 100.112 126.922 109.663 125 122H208Z" fill="#A3BF49"/>
<path d="M102 105C112.493 105 121 81.4947 121 52.4999C121 23.5049 112.493 -0.00012207 102 -0.00012207C91.5064 -0.00012207 83 23.5049 83 52.4999C83 81.4947 91.5064 105 102 105Z" fill="#A3BF49"/>
</g>
<defs>
<clipPath id="clip0">
<rect width="200" height="150" fill="white"/>
</clipPath>
</defs>
</svg>
