<svg width="74" height="74" viewBox="0 0 74 74" fill="none" xmlns="http://www.w3.org/2000/svg">
<rect width="74" height="74" rx="8" fill="#AACA48"/>
<path d="M51.6188 35.6244C51.4775 35.5948 51.3441 35.5669 51.2255 35.536C49.8808 35.1863 49.2671 34.9947 48.8133 34.1186L47.0945 30.6386C46.542 29.5722 45.1156 28.7045 43.9147 28.7045H40.8546V24.686C40.8546 23.9645 40.2675 23.3774 39.5458 23.3774L18.2319 23.3988C17.5297 23.3988 17.0001 23.9569 17.0001 24.697C17.0001 31.1727 17 37.6484 17 44.1241C17 44.8457 17.5871 45.4327 18.3086 45.4327H20.5257C20.871 47.7992 22.9134 49.6225 25.3745 49.6225C27.8357 49.6225 29.8782 47.7992 30.2236 45.4327H39.1963C39.2429 45.4327 39.2907 45.4296 39.3384 45.4265C39.6811 47.796 41.7248 49.6225 44.1879 49.6225C46.6492 49.6225 48.6917 47.7992 49.0371 45.4327H52.2217C53.4753 45.4327 54.4952 44.4129 54.4952 43.1594V39.3019C54.4951 36.228 52.7641 35.8648 51.6188 35.6244ZM44.1879 42.9407C45.1706 42.9407 45.9701 43.7398 45.9701 44.7222C45.9701 45.7046 45.1706 46.5037 44.1879 46.5037C43.2057 46.5037 42.4065 45.7046 42.4065 44.7222C42.4065 43.7398 43.2057 42.9407 44.1879 42.9407ZM40.8546 35.3474V30.6024H43.1931C44.0919 30.6024 45.2007 31.2768 45.6122 32.0709L47.1418 35.1677C47.1742 35.2303 47.2078 35.2901 47.2428 35.3473L40.8546 35.3474ZM27.1566 44.7221C27.1566 45.7044 26.3571 46.5036 25.3745 46.5036C24.3922 46.5036 23.5931 45.7045 23.5931 44.7221C23.5931 43.7397 24.3922 42.9406 25.3745 42.9406C26.3571 42.9407 27.1566 43.7398 27.1566 44.7221Z" fill="white"/>
</svg>
